#!OML:ASF F:\VICON\USERDATA\INSTALL\rory3\rory3.ASF
:FULLY-SPECIFIED
:DEGREES
1340
root -1.88181 17.6086 1.57084 6.30736 3.70737 0.723479
lowerback 4.54138 -0.600794 -2.89199
upperback -1.09381 -0.881201 2.59594
thorax -3.59597 -0.346756 4.38393
lowerneck -26.8364 -2.21519 -10.3146
upperneck 28.6295 -0.0688143 4.21514
head 14.3563 -0.566723 3.45091
rclavicle -2.08724e-015 -1.59028e-014
rhumerus -39.7129 -23.7585 -60.7858
rradius 32.1816
rwrist 16.6025
rhand -22.5211 3.74065
rfingers 7.12502
rthumb 3.90559 -26.2033
lclavicle -2.08724e-015 -1.59028e-014
lhumerus -37.9967 23.0285 67.5114
lradius 32.9512
lwrist -0.974925
lhand -18.8169 17.8795
lfingers 7.12502
lthumb 7.48188 47.7272
rfemur -16.53 -6.58739 20.8216
rtibia 37.101
rfoot -23.1241 0.130213
rtoes 11.3009
lfemur -14.2477 -1.01505 -18.8446
ltibia 30.8299
lfoot -18.9979 5.96924
ltoes -19.4508
1341
root -1.87931 17.5994 1.56449 6.25156 3.77012 0.701811
lowerback 4.5636 -0.626044 -2.75488
upperback -1.01888 -0.909351 2.54429
thorax -3.53052 -0.366955 4.25335
lowerneck -26.7809 -2.17251 -10.3242
upperneck 28.5197 -0.0558639 4.34781
head 14.2938 -0.538723 3.50604
rclavicle 3.57812e-015 -7.95139e-016
rhumerus -39.6989 -23.6882 -60.9275
rradius 32.1398
rwrist 16.4574
rhand -22.7108 3.94392
rfingers 7.12502
rthumb 3.72234 -26.0033
lclavicle 3.57812e-015 -7.95139e-016
lhumerus -37.9114 22.9407 67.5158
lradius 32.995
lwrist -1.0012
lhand -18.6116 17.9811
lfingers 7.12502
lthumb 7.68007 47.8216
rfemur -16.5989 -6.82999 20.7956
rtibia 37.3363
rfoot -23.2862 0.55133
rtoes 11.4818
lfemur -14.3783 -0.915751 -18.8104
ltibia 31.1571
lfoot -19.1984 5.71007
ltoes -19.3386
1342
root -1.87805 17.5888 1.56135 6.19318 3.81759 0.700813
lowerback 4.59464 -0.64871 -2.67624
upperback -0.969803 -0.936725 2.51564
thorax -3.49605 -0.384062 4.18062
lowerneck -26.721 -2.12845 -10.2268
upperneck 28.4568 0.000604246 4.22192
head 14.2489 -0.52032 3.44573
rclavicle -1.21259e-014 -4.77083e-015
rhumerus -39.6864 -23.4984 -61.0761
rradius 32.1621
rwrist 16.444
rhand -22.5814 3.68335
rfingers 7.12502
rthumb 3.84738 -26.2617
lclavicle -1.21259e-014 -4.77083e-015
lhumerus -37.8838 22.8507 67.5376
lradius 33.0167
lwrist -1.03862
lhand -18.5812 17.9862
lfingers 7.12502
lthumb 7.70941 47.8257
rfemur -16.6427 -7.11781 20.7491
rtibia 37.5981
rfoot -23.4768 1.00076
rtoes 11.4393
lfemur -14.5179 -0.746085 -18.7985
ltibia 31.547
lfoot -19.4486 5.39866
ltoes -19.1573
1343
root -1.87843 17.57 1.55747 5.96346 3.83216 0.735347
lowerback 4.84453 -0.614412 -2.71264
upperback -0.937908 -0.897278 2.52153
thorax -3.60707 -0.361688 4.20916
lowerneck -26.5177 -2.16103 -10.322
upperneck 28.4094 -0.0244565 4.20585
head 14.1896 -0.543027 3.44659
rclavicle 2.47487e-014 -3.89618e-014
rhumerus -39.8604 -23.3987 -60.9852
rradius 32.217
rwrist 16.5232
rhand -22.5117 3.41411
rfingers 7.12502
rthumb 3.9146 -26.5297
lclavicle 2.47487e-014 -3.89618e-014
lhumerus -37.8975 22.7501 67.5863
lradius 32.9338
lwrist -1.24576
lhand -18.5531 17.5349
lfingers 7.12502
lthumb 7.73648 47.3734
rfemur -16.5434 -7.69989 20.6856
rtibia 37.8937
rfoot -23.4622 1.30425
rtoes 10.3302
lfemur -14.5078 -0.404284 -18.8212
ltibia 31.9928
lfoot -19.7292 5.01965
ltoes -18.6875
1344
root -1.87912 17.5488 1.55277 5.72033 3.82721 0.631465
lowerback 5.12091 -0.591177 -2.64768
upperback -0.91634 -0.864491 2.58406
thorax -3.74374 -0.34346 4.24043
lowerneck -26.2845 -2.13175 -10.3586
upperneck 28.3937 0.0247861 4.14765
head 14.1308 -0.534603 3.43534
rclavicle -1.2921e-015 -3.18055e-015
rhumerus -40.0092 -23.2722 -60.8575
rradius 32.2198
rwrist 16.4837
rhand -22.5178 3.66777
rfingers 7.12502
rthumb 3.90875 -26.2761
lclavicle -1.2921e-015 -3.18055e-015
lhumerus -38.0481 22.703 67.5791
lradius 33.0221
lwrist -1.5229
lhand -18.2061 17.1216
lfingers 7.12502
lthumb 8.07143 46.9475
rfemur -16.4812 -8.2322 20.7746
rtibia 38.2655
rfoot -23.4951 1.54907
rtoes 9.1941
lfemur -14.5438 0.0844554 -18.6914
ltibia 32.4918
lfoot -19.9599 4.59776
ltoes -18.6232
1345
root -1.87915 17.5311 1.54693 5.54921 3.87252 0.572554
lowerback 5.33043 -0.599886 -2.54568
upperback -0.869169 -0.8731 2.57727
thorax -3.81362 -0.349297 4.17967
lowerneck -26.2507 -2.10452 -10.2141
upperneck 28.4391 0.0526996 3.98537
head 14.1416 -0.532111 3.35072
rclavicle -3.08116e-015 -7.15625e-015
rhumerus -40.0882 -23.2701 -60.8554
rradius 32.2638
rwrist 16.6309
rhand -22.4722 3.88141
rfingers 7.12502
rthumb 3.95283 -26.0617
lclavicle -3.08116e-015 -7.15625e-015
lhumerus -38.0534 22.5782 67.6033
lradius 33.125
lwrist -1.75113
lhand -18.2098 17.0449
lfingers 7.12502
lthumb 8.0679 46.8709
rfemur -16.5321 -8.63292 20.7889
rtibia 38.722
rfoot -23.6279 2.12297
rtoes 9.61331
lfemur -14.6875 0.385479 -18.6078
ltibia 33.0458
lfoot -20.1704 4.28532
ltoes -18.7304
